<svg width="170" height="90" viewBox="0 0 170 90" fill="none" xmlns="http://www.w3.org/2000/svg">
<path d="M139.56 58.6V58.36C139.56 52.4 134.56 49.04 127.24 49.04H121.4C116.6 49.04 115.16 50.76 115.16 55.36V74.92C115.16 79.52 116.6 81.24 121.4 81.24H128.36C135.48 81.24 140.76 78.72 140.76 71.92V71.88C140.76 68.76 139.2 66.12 135.76 64.76C138.32 63.32 139.56 61.08 139.56 58.6ZM128.84 68.4C131.48 68.4 132.64 69.84 132.64 71.28V71.56C132.64 73 131.48 74.44 128.84 74.44H124.44C123.52 74.44 123.28 74.24 123.28 73.28V68.4H128.84ZM124.44 55.84H127.64C130.28 55.84 131.44 57.28 131.44 58.72V59C131.44 60.36 130.28 61.88 127.64 61.88H123.28V57C123.28 56.04 123.52 55.84 124.44 55.84ZM166.47 61.96C167.47 59.6 166.39 57.36 164.31 56.6C162.23 55.84 159.79 56.36 158.91 58.88L154.67 71.32L150.07 58.88C149.15 56.36 146.67 55.84 144.59 56.6C142.51 57.36 141.31 59.64 142.35 61.96L150.51 80.12V80.16C149.87 81.36 148.19 81.88 146.55 81.56C144.19 81.12 142.87 82.6 142.59 84.4C142.35 86.16 143.51 88.04 145.83 88.36C151.39 89.16 155.63 86.84 158.07 81.2L166.47 61.96Z" fill="black"/>
<path d="M50 0H69.4444C70.9722 0 72.2222 1.26562 72.2222 2.8125V14.0625C72.2222 15.6094 70.9722 16.875 69.4444 16.875H55.6771L71.2326 28.125H88.8889C95.0174 28.125 100 33.1699 100 39.375V78.75C100 84.9551 95.0174 90 88.8889 90H58.3333V70.3125C58.3333 65.6543 54.6007 61.875 50 61.875C45.3993 61.875 41.6667 65.6543 41.6667 70.3125V90H11.1111C4.98264 90 0 84.9551 0 78.75V39.375C0 33.1699 4.98264 28.125 11.1111 28.125H28.7674L44.4444 16.7871V5.625C44.4444 2.51367 46.9271 0 50 0ZM58.3333 42.1875C58.3333 39.9497 57.4554 37.8036 55.8926 36.2213C54.3298 34.6389 52.2101 33.75 50 33.75C47.7899 33.75 45.6702 34.6389 44.1074 36.2213C42.5446 37.8036 41.6667 39.9497 41.6667 42.1875C41.6667 44.4253 42.5446 46.5714 44.1074 48.1537C45.6702 49.7361 47.7899 50.625 50 50.625C52.2101 50.625 54.3298 49.7361 55.8926 48.1537C57.4554 46.5714 58.3333 44.4253 58.3333 42.1875ZM13.8889 39.375C12.3611 39.375 11.1111 40.6406 11.1111 42.1875V53.4375C11.1111 54.9844 12.3611 56.25 13.8889 56.25H19.4444C20.9722 56.25 22.2222 54.9844 22.2222 53.4375V42.1875C22.2222 40.6406 20.9722 39.375 19.4444 39.375H13.8889ZM77.7778 42.1875V53.4375C77.7778 54.9844 79.0278 56.25 80.5555 56.25H86.1111C87.6389 56.25 88.8889 54.9844 88.8889 53.4375V42.1875C88.8889 40.6406 87.6389 39.375 86.1111 39.375H80.5555C79.0278 39.375 77.7778 40.6406 77.7778 42.1875ZM13.8889 61.875C12.3611 61.875 11.1111 63.1406 11.1111 64.6875V75.9375C11.1111 77.4844 12.3611 78.75 13.8889 78.75H19.4444C20.9722 78.75 22.2222 77.4844 22.2222 75.9375V64.6875C22.2222 63.1406 20.9722 61.875 19.4444 61.875H13.8889ZM80.5555 61.875C79.0278 61.875 77.7778 63.1406 77.7778 64.6875V75.9375C77.7778 77.4844 79.0278 78.75 80.5555 78.75H86.1111C87.6389 78.75 88.8889 77.4844 88.8889 75.9375V64.6875C88.8889 63.1406 87.6389 61.875 86.1111 61.875H80.5555Z" fill="#3F5FD1"/>
</svg>
