<svg width="100" height="177" viewBox="0 0 100 177" fill="none" xmlns="http://www.w3.org/2000/svg">
<path d="M48.56 117.6V117.36C48.56 111.4 43.56 108.04 36.24 108.04H30.4C25.6 108.04 24.16 109.76 24.16 114.36V133.92C24.16 138.52 25.6 140.24 30.4 140.24H37.36C44.48 140.24 49.76 137.72 49.76 130.92V130.88C49.76 127.76 48.2 125.12 44.76 123.76C47.32 122.32 48.56 120.08 48.56 117.6ZM37.84 127.4C40.48 127.4 41.64 128.84 41.64 130.28V130.56C41.64 132 40.48 133.44 37.84 133.44H33.44C32.52 133.44 32.28 133.24 32.28 132.28V127.4H37.84ZM33.44 114.84H36.64C39.28 114.84 40.44 116.28 40.44 117.72V118C40.44 119.36 39.28 120.88 36.64 120.88H32.28V116C32.28 115.04 32.52 114.84 33.44 114.84ZM75.47 120.96C76.47 118.6 75.39 116.36 73.31 115.6C71.23 114.84 68.79 115.36 67.91 117.88L63.67 130.32L59.07 117.88C58.15 115.36 55.67 114.84 53.59 115.6C51.51 116.36 50.31 118.64 51.35 120.96L59.51 139.12V139.16C58.87 140.36 57.19 140.88 55.55 140.56C53.19 140.12 51.87 141.6 51.59 143.4C51.35 145.16 52.51 147.04 54.83 147.36C60.39 148.16 64.63 145.84 67.07 140.2L75.47 120.96Z" fill="black"/>
<path d="M9.296 164.16V164.076C9.296 161.99 7.546 160.814 4.984 160.814H2.94C1.26 160.814 0.756 161.416 0.756 163.026V169.872C0.756 171.482 1.26 172.084 2.94 172.084H5.376C7.868 172.084 9.716 171.202 9.716 168.822V168.808C9.716 167.716 9.17 166.792 7.966 166.316C8.862 165.812 9.296 165.028 9.296 164.16ZM5.544 167.59C6.468 167.59 6.874 168.094 6.874 168.598V168.696C6.874 169.2 6.468 169.704 5.544 169.704H4.004C3.682 169.704 3.598 169.634 3.598 169.298V167.59H5.544ZM4.004 163.194H5.124C6.048 163.194 6.454 163.698 6.454 164.202V164.3C6.454 164.776 6.048 165.308 5.124 165.308H3.598V163.6C3.598 163.264 3.682 163.194 4.004 163.194ZM18.7145 165.336C19.0645 164.51 18.6865 163.726 17.9585 163.46C17.2305 163.194 16.3765 163.376 16.0685 164.258L14.5845 168.612L12.9745 164.258C12.6525 163.376 11.7845 163.194 11.0565 163.46C10.3285 163.726 9.9085 164.524 10.2725 165.336L13.1285 171.692V171.706C12.9045 172.126 12.3165 172.308 11.7425 172.196C10.9165 172.042 10.4545 172.56 10.3565 173.19C10.2725 173.806 10.6785 174.464 11.4905 174.576C13.4365 174.856 14.9205 174.044 15.7745 172.07L18.7145 165.336ZM32.3797 162.872C32.9677 161.92 32.4217 161.052 31.7357 160.842C30.7977 160.548 30.1677 161.038 29.7617 161.724L27.8717 164.972L25.9117 161.724C25.4217 160.926 24.6097 160.52 23.7277 160.884C23.0977 161.15 22.6077 162.004 23.1677 162.872L26.3457 167.87V172.084H29.2017V167.954L32.3797 162.872ZM32.5939 168.472C32.5939 171.482 34.7919 172.35 36.6539 172.35C38.5159 172.35 40.7139 171.482 40.7139 168.472V167.184C40.7139 164.174 38.5159 163.306 36.6539 163.306C34.7499 163.306 32.5939 164.174 32.5939 167.184V168.472ZM37.8999 168.598C37.8999 169.592 37.2559 169.984 36.6539 169.984C36.0519 169.984 35.4079 169.592 35.4079 168.598V167.058C35.4079 166.064 36.0519 165.672 36.6539 165.672C37.2559 165.672 37.8999 166.064 37.8999 167.058V168.598ZM45.1527 172.322C46.1607 172.322 47.0147 171.888 47.5327 171.174L47.6867 172.084H49.9127V164.72C49.9127 163.768 49.2687 163.334 48.4847 163.334C47.7147 163.334 47.0707 163.768 47.0707 164.72V168.724C47.0427 169.62 46.4127 169.928 45.9507 169.928C45.4747 169.928 44.8447 169.606 44.8447 168.654V164.734C44.8447 163.768 44.1867 163.334 43.4027 163.334C42.6187 163.334 41.9607 163.768 41.9607 164.734V168.486C41.9607 171.44 43.3747 172.322 45.1527 172.322ZM54.1553 172.084V167.156C54.1973 166.456 54.6593 166.022 55.4293 165.966C55.6253 165.952 55.8773 165.966 56.0733 165.966C56.6893 165.966 57.1933 165.546 57.2913 164.888C57.3893 164.23 57.0813 163.67 56.5493 163.446C56.3393 163.362 56.1013 163.334 55.8913 163.334C55.2053 163.334 54.5473 163.628 54.0293 164.118C53.7913 163.6 53.2733 163.334 52.7273 163.334C51.9853 163.334 51.3133 163.81 51.3133 164.734V172.084H54.1553ZM64.7363 164.09C64.7503 163.516 65.1563 163.25 65.8283 163.25C66.6683 163.25 67.1583 163.446 67.4943 163.67C67.6203 163.768 67.9283 163.852 68.1383 163.852C68.6703 163.852 69.1603 163.628 69.3423 163.054C69.5523 162.382 69.1043 161.682 68.4603 161.332C67.9423 161.052 67.2563 160.772 65.8003 160.772C63.8823 160.772 62.5103 161.64 62.0203 163.138C61.5443 164.608 62.0063 166.526 64.1203 167.408C64.2883 167.478 64.5683 167.59 64.7923 167.66C65.9543 168.024 66.8783 168.43 66.8643 168.962C66.8503 169.578 66.3883 169.844 65.6183 169.844C64.6663 169.844 64.2323 169.676 63.9103 169.48C63.6443 169.34 63.4063 169.116 62.9163 169.13C62.5383 169.144 62.1323 169.326 61.9223 169.634C61.5023 170.278 61.7543 171.034 62.2863 171.468C63.0423 172.07 64.2883 172.322 65.5343 172.322C68.0823 172.322 69.6503 171.16 69.7763 169.172C69.8883 167.366 68.8103 166.148 67.1723 165.56L66.4863 165.322C65.3663 164.944 64.7223 164.608 64.7363 164.09ZM70.8657 172.084H73.7497V164.832C73.7497 163.866 73.0917 163.432 72.3077 163.432C71.5237 163.432 70.8657 163.866 70.8657 164.832V172.084ZM70.8517 161.542C70.8517 162.466 71.5237 162.83 72.3077 162.83C73.0917 162.83 73.7637 162.466 73.7637 161.542C73.7637 160.618 73.0917 160.254 72.3077 160.254C71.5237 160.254 70.8517 160.618 70.8517 161.542ZM83.2334 172.084V161.654C83.2334 160.73 82.5614 160.254 81.8194 160.254C81.0774 160.254 80.3914 160.73 80.3914 161.654V163.992C79.9014 163.586 79.2714 163.334 78.5014 163.334C76.6534 163.334 75.0854 164.244 75.0854 167.198V168.458C75.0854 171.412 76.6534 172.322 78.5014 172.322C79.5094 172.322 80.3214 171.888 80.8534 171.174L81.0074 172.084H83.2334ZM77.9694 167.002C77.9694 166.05 78.6834 165.728 79.1734 165.728C79.6494 165.728 80.3494 166.036 80.3914 166.932V168.724C80.3494 169.62 79.6494 169.928 79.1734 169.928C78.6834 169.928 77.9694 169.606 77.9694 168.654V167.002ZM88.8863 172.322C89.9083 172.322 90.9023 172.028 91.3503 171.762C92.0223 171.37 92.3583 170.782 92.0643 170.096C91.8823 169.676 91.4343 169.508 90.9583 169.564C90.7203 169.592 90.5103 169.704 90.3003 169.774C89.9223 169.9 89.6283 169.956 88.9423 169.956C88.2703 169.956 87.3463 169.634 87.3463 168.682V168.668H92.3583C92.4003 168.43 92.4283 168.038 92.4283 167.8C92.4283 164.09 90.5103 163.334 88.5643 163.334C86.7723 163.334 84.5743 164.23 84.5743 167.212V168.444C84.5743 171.37 86.8563 172.322 88.8863 172.322ZM88.5783 165.602C89.1943 165.602 89.7543 165.91 89.7123 166.834H87.3463C87.3603 165.91 87.9623 165.602 88.5783 165.602Z" fill="black"/>
<path d="M50 0H69.4444C70.9722 0 72.2222 1.26562 72.2222 2.8125V14.0625C72.2222 15.6094 70.9722 16.875 69.4444 16.875H55.6771L71.2326 28.125H88.8889C95.0174 28.125 100 33.1699 100 39.375V78.75C100 84.9551 95.0174 90 88.8889 90H58.3333V70.3125C58.3333 65.6543 54.6007 61.875 50 61.875C45.3993 61.875 41.6667 65.6543 41.6667 70.3125V90H11.1111C4.98264 90 0 84.9551 0 78.75V39.375C0 33.1699 4.98264 28.125 11.1111 28.125H28.7674L44.4444 16.7871V5.625C44.4444 2.51367 46.9271 0 50 0ZM58.3333 42.1875C58.3333 39.9497 57.4554 37.8036 55.8926 36.2213C54.3298 34.6389 52.2101 33.75 50 33.75C47.7899 33.75 45.6702 34.6389 44.1074 36.2213C42.5446 37.8036 41.6667 39.9497 41.6667 42.1875C41.6667 44.4253 42.5446 46.5714 44.1074 48.1537C45.6702 49.7361 47.7899 50.625 50 50.625C52.2101 50.625 54.3298 49.7361 55.8926 48.1537C57.4554 46.5714 58.3333 44.4253 58.3333 42.1875ZM13.8889 39.375C12.3611 39.375 11.1111 40.6406 11.1111 42.1875V53.4375C11.1111 54.9844 12.3611 56.25 13.8889 56.25H19.4444C20.9722 56.25 22.2222 54.9844 22.2222 53.4375V42.1875C22.2222 40.6406 20.9722 39.375 19.4444 39.375H13.8889ZM77.7778 42.1875V53.4375C77.7778 54.9844 79.0278 56.25 80.5556 56.25H86.1111C87.6389 56.25 88.8889 54.9844 88.8889 53.4375V42.1875C88.8889 40.6406 87.6389 39.375 86.1111 39.375H80.5556C79.0278 39.375 77.7778 40.6406 77.7778 42.1875ZM13.8889 61.875C12.3611 61.875 11.1111 63.1406 11.1111 64.6875V75.9375C11.1111 77.4844 12.3611 78.75 13.8889 78.75H19.4444C20.9722 78.75 22.2222 77.4844 22.2222 75.9375V64.6875C22.2222 63.1406 20.9722 61.875 19.4444 61.875H13.8889ZM80.5556 61.875C79.0278 61.875 77.7778 63.1406 77.7778 64.6875V75.9375C77.7778 77.4844 79.0278 78.75 80.5556 78.75H86.1111C87.6389 78.75 88.8889 77.4844 88.8889 75.9375V64.6875C88.8889 63.1406 87.6389 61.875 86.1111 61.875H80.5556Z" fill="#3F5FD1"/>
</svg>
