<svg width="88" height="36" viewBox="0 0 88 36" fill="none" xmlns="http://www.w3.org/2000/svg">
<path d="M61.28 19.8V19.68C61.28 16.7 58.78 15.02 55.12 15.02H52.2C49.8 15.02 49.08 15.88 49.08 18.18V27.96C49.08 30.26 49.8 31.12 52.2 31.12H55.68C59.24 31.12 61.88 29.86 61.88 26.46V26.44C61.88 24.88 61.1 23.56 59.38 22.88C60.66 22.16 61.28 21.04 61.28 19.8ZM55.92 24.7C57.24 24.7 57.82 25.42 57.82 26.14V26.28C57.82 27 57.24 27.72 55.92 27.72H53.72C53.26 27.72 53.14 27.62 53.14 27.14V24.7H55.92ZM53.72 18.42H55.32C56.64 18.42 57.22 19.14 57.22 19.86V20C57.22 20.68 56.64 21.44 55.32 21.44H53.14V19C53.14 18.52 53.26 18.42 53.72 18.42ZM74.735 21.48C75.235 20.3 74.695 19.18 73.655 18.8C72.615 18.42 71.395 18.68 70.955 19.94L68.835 26.16L66.535 19.94C66.075 18.68 64.835 18.42 63.795 18.8C62.755 19.18 62.155 20.32 62.675 21.48L66.755 30.56V30.58C66.435 31.18 65.595 31.44 64.775 31.28C63.595 31.06 62.935 31.8 62.795 32.7C62.675 33.58 63.255 34.52 64.415 34.68C67.195 35.08 69.315 33.92 70.535 31.1L74.735 21.48Z" fill="black"/>
<path d="M20 0H27.7778C28.3889 0 28.8889 0.50625 28.8889 1.125V5.625C28.8889 6.24375 28.3889 6.75 27.7778 6.75H22.2708L28.4931 11.25H35.5556C38.0069 11.25 40 13.268 40 15.75V31.5C40 33.982 38.0069 36 35.5556 36H23.3333V28.125C23.3333 26.2617 21.8403 24.75 20 24.75C18.1597 24.75 16.6667 26.2617 16.6667 28.125V36H4.44444C1.99306 36 0 33.982 0 31.5V15.75C0 13.268 1.99306 11.25 4.44444 11.25H11.5069L17.7778 6.71484V2.25C17.7778 1.00547 18.7708 0 20 0ZM23.3333 16.875C23.3333 15.9799 22.9821 15.1214 22.357 14.4885C21.7319 13.8556 20.8841 13.5 20 13.5C19.1159 13.5 18.2681 13.8556 17.643 14.4885C17.0179 15.1214 16.6667 15.9799 16.6667 16.875C16.6667 17.7701 17.0179 18.6286 17.643 19.2615C18.2681 19.8944 19.1159 20.25 20 20.25C20.8841 20.25 21.7319 19.8944 22.357 19.2615C22.9821 18.6286 23.3333 17.7701 23.3333 16.875ZM5.55556 15.75C4.94444 15.75 4.44444 16.2563 4.44444 16.875V21.375C4.44444 21.9937 4.94444 22.5 5.55556 22.5H7.77778C8.38889 22.5 8.88889 21.9937 8.88889 21.375V16.875C8.88889 16.2563 8.38889 15.75 7.77778 15.75H5.55556ZM31.1111 16.875V21.375C31.1111 21.9937 31.6111 22.5 32.2222 22.5H34.4444C35.0556 22.5 35.5556 21.9937 35.5556 21.375V16.875C35.5556 16.2563 35.0556 15.75 34.4444 15.75H32.2222C31.6111 15.75 31.1111 16.2563 31.1111 16.875ZM5.55556 24.75C4.94444 24.75 4.44444 25.2563 4.44444 25.875V30.375C4.44444 30.9937 4.94444 31.5 5.55556 31.5H7.77778C8.38889 31.5 8.88889 30.9937 8.88889 30.375V25.875C8.88889 25.2563 8.38889 24.75 7.77778 24.75H5.55556ZM32.2222 24.75C31.6111 24.75 31.1111 25.2563 31.1111 25.875V30.375C31.1111 30.9937 31.6111 31.5 32.2222 31.5H34.4444C35.0556 31.5 35.5556 30.9937 35.5556 30.375V25.875C35.5556 25.2563 35.0556 24.75 34.4444 24.75H32.2222Z" fill="#3F5FD1"/>
</svg>
